# xmcd CD database file
#
# Track frame offsets:
#	150
#	8722
#	20157
#	30590
#	40762
#	51902
#	60487
#	71890
#	84785
#	96920
#	115670
#	124737
#
# Disc length: 1816 seconds
#
# Revision: 0
# Processed by: cddbd v1.5.2PL0 Copyright (c) Steve Scherf et al.
# Submitted via: CDex 1.99.1
#
DISCID=9507160c
DTITLE=Williams, Joe (1918-1999) - Joe Williams 1961 with Harry 'Sweets' Edison
DYEAR=1961
DGENRE=Jazz
TTITLE0=Winter Weather
TTITLE1=I Don't Know Why
TTITLE2=There's A Small Hotel
TTITLE3=Out Of Nowhere
TTITLE4=Aren't Glad You're You
TTITLE5=Remember
TTITLE6=Together
TTITLE7=Deep Purple
TTITLE8=Always
TTITLE9=Lover Come Back
TTITLE10=By The River Sainte Marie
TTITLE11=Alone Together
EXTD=YEAR: 1961
EXTT0=
EXTT1=
EXTT2=
EXTT3=
EXTT4=
EXTT5=
EXTT6=
EXTT7=
EXTT8=
EXTT9=
EXTT10=
EXTT11=
PLAYORDER=
